<svg xmlns="http://www.w3.org/2000/svg" xmlns:xlink="http://www.w3.org/1999/xlink" width="86" height="86" viewBox="0 0 86 86">
  <defs>
    <clipPath id="clip-path">
      <circle id="Ellipse_1" data-name="Ellipse 1" cx="43" cy="43" r="43" transform="translate(-5 -2)" fill="#1a1a1a"/>
    </clipPath>
  </defs>
  <g id="Mask_Group_1" data-name="Mask Group 1" transform="translate(5 2)" clip-path="url(#clip-path)">
    <g id="__TEMP__SVG__" transform="translate(0 3.077)">
      <g id="Group_1" data-name="Group 1" transform="translate(-2 -1)">
        <g id="lock-fill" transform="translate(1.886 -2.382)">
          <path id="Path_4" data-name="Path 4" d="M11.911,42.878a9.529,9.529,0,0,1,9.529-9.529h33.35a9.529,9.529,0,0,1,9.529,9.529V66.7a9.529,9.529,0,0,1-9.529,9.529H21.439A9.529,9.529,0,0,1,11.911,66.7Z" fill="#1a1a1a"/>
          <path id="Path_5" data-name="Path 5" d="M21.439,19.057a16.675,16.675,0,0,1,33.35,0V33.35H50.025V19.057a11.911,11.911,0,1,0-23.821,0V33.35H21.439Z" fill="#1a1a1a" fill-rule="evenodd"/>
        </g>
      </g>
    </g>
  </g>
</svg>
