<svg id="plus-square-fill" xmlns="http://www.w3.org/2000/svg" width="12.586" height="12.586" viewBox="0 0 12.586 12.586">
  <path id="Path_2" data-name="Path 2" d="M1.573,0A1.573,1.573,0,0,0,0,1.573v9.439a1.573,1.573,0,0,0,1.573,1.573h9.439a1.573,1.573,0,0,0,1.573-1.573V1.573A1.573,1.573,0,0,0,11.012,0ZM6.686,3.146a.393.393,0,0,0-.787,0V5.9H3.146a.393.393,0,1,0,0,.787H5.9V9.439a.393.393,0,0,0,.787,0V6.686H9.439a.393.393,0,0,0,0-.787H6.686Z" transform="translate(0)" fill="#f8f8f8" fill-rule="evenodd"/>
</svg>
