<svg xmlns="http://www.w3.org/2000/svg" width="15.34" height="15.342" viewBox="0 0 15.34 15.342">
  <path id="share" d="M16.392,16.468A2.876,2.876,0,1,1,15.625,18l-4.671-2.342a2.876,2.876,0,1,1,0-3.979l4.671-2.342a2.876,2.876,0,1,1,.767,1.533l-4.676,2.337a2.9,2.9,0,0,1,0,.922l4.676,2.337Zm2.071-6.634a.959.959,0,1,0-.959-.959A.959.959,0,0,0,18.463,9.834Zm0,9.587a.959.959,0,1,0-.959-.959A.959.959,0,0,0,18.463,19.421ZM8.876,14.628a.959.959,0,1,0-.959-.959A.959.959,0,0,0,8.876,14.628Z" transform="translate(-6 -5.998)" fill="#f8f8f8" fill-rule="evenodd"/>
</svg>
