<svg xmlns="http://www.w3.org/2000/svg" width="80" height="73.846" viewBox="0 0 80 73.846">
  <g id="__TEMP__SVG__" transform="translate(-12.308 -12.308)">
    <path id="Path_1" data-name="Path 1" d="M52.308,12.308a3.077,3.077,0,0,1,3.077,3.077V83.077a3.077,3.077,0,0,1-6.154,0V15.385A3.077,3.077,0,0,1,52.308,12.308ZM40,24.615a3.077,3.077,0,0,1,3.077,3.077V70.769a3.077,3.077,0,0,1-6.154,0V27.692A3.077,3.077,0,0,1,40,24.615Zm24.615,0a3.077,3.077,0,0,1,3.077,3.077V70.769a3.077,3.077,0,0,1-6.154,0V27.692A3.077,3.077,0,0,1,64.615,24.615ZM27.692,33.846a3.077,3.077,0,0,1,3.077,3.077V61.538a3.077,3.077,0,1,1-6.154,0V36.923A3.077,3.077,0,0,1,27.692,33.846Zm49.231,0A3.077,3.077,0,0,1,80,36.923V61.538a3.077,3.077,0,1,1-6.154,0V36.923A3.077,3.077,0,0,1,76.923,33.846ZM15.385,40a3.077,3.077,0,0,1,3.077,3.077V55.385a3.077,3.077,0,1,1-6.154,0V43.077A3.077,3.077,0,0,1,15.385,40Zm73.846,0a3.077,3.077,0,0,1,3.077,3.077V55.385a3.077,3.077,0,1,1-6.154,0V43.077A3.077,3.077,0,0,1,89.231,40Z" fill="#f8f8f8" fill-rule="evenodd"/>
  </g>
</svg>
