<svg xmlns="http://www.w3.org/2000/svg" width="20.521" height="15.391" viewBox="0 0 20.521 15.391">
  <g id="card-text" transform="translate(0 -4.5)">
    <path id="Path_7" data-name="Path 7" d="M18.6,5.783H1.924a.641.641,0,0,0-.641.641V17.967a.641.641,0,0,0,.641.641H18.6a.641.641,0,0,0,.641-.641V6.424A.641.641,0,0,0,18.6,5.783ZM1.924,4.5A1.924,1.924,0,0,0,0,6.424V17.967a1.924,1.924,0,0,0,1.924,1.924H18.6a1.924,1.924,0,0,0,1.924-1.924V6.424A1.924,1.924,0,0,0,18.6,4.5Z" fill="#1a1a1a" fill-rule="evenodd"/>
    <path id="Path_8" data-name="Path 8" d="M6.75,11.891a.641.641,0,0,1,.641-.641H18.934a.641.641,0,1,1,0,1.283H7.391A.641.641,0,0,1,6.75,11.891Zm0,3.206a.641.641,0,0,1,.641-.641H18.934a.641.641,0,1,1,0,1.283H7.391A.641.641,0,0,1,6.75,15.1Zm0,3.206a.641.641,0,0,1,.641-.641h7.7a.641.641,0,1,1,0,1.283h-7.7A.641.641,0,0,1,6.75,18.3Z" transform="translate(-2.902 -2.902)" fill="#1a1a1a" fill-rule="evenodd"/>
  </g>
</svg>
